<svg width="64" height="64" viewBox="0 0 64 64" fill="none" xmlns="http://www.w3.org/2000/svg">
<circle cx="32" cy="32" r="28" fill="white"/>
<path d="M31.8324 33.4435C31.8925 33.5122 31.9488 33.5866 32.0013 33.6665C32.0447 33.7569 32.0828 33.8519 32.1155 33.9515C32.1363 34.0593 32.1504 34.1704 32.158 34.2848C32.1514 34.4043 32.1372 34.5255 32.1154 34.6483C32.0779 34.7728 32.0323 34.897 31.9786 35.0211C31.9085 35.1429 31.8301 35.2625 31.7436 35.3799C31.6409 35.4909 31.5303 35.5977 31.4119 35.7003C31.2785 35.7926 31.1381 35.8786 30.9907 35.9586C30.8304 36.0244 30.6644 36.0822 30.4928 36.1322C30.3113 36.1647 30.1258 36.1879 29.9363 36.2016C29.7407 36.1953 29.5432 36.1786 29.3438 36.1513C29.1427 36.1023 28.942 36.0421 28.7417 35.9708C28.5445 35.877 28.3502 35.7718 28.1587 35.6554C27.9755 35.5167 27.7976 35.3672 27.6251 35.2068C27.4659 35.0255 27.3145 34.8343 27.1709 34.6333C27.0452 34.4138 26.9297 34.186 26.8243 33.9499C26.7411 33.6989 26.6699 33.4416 26.6108 33.1779C26.5774 32.9039 26.5575 32.6261 26.5513 32.3443C26.5733 32.0575 26.61 31.7697 26.6612 31.4807C26.7421 31.1926 26.8381 30.9064 26.9491 30.6222C27.0901 30.345 27.2459 30.0729 27.4165 29.806C27.616 29.5524 27.8295 29.307 28.0568 29.0699C28.3107 28.8523 28.5769 28.6459 28.8556 28.4506C29.157 28.2806 29.4687 28.1244 29.7906 27.982C30.1304 27.8698 30.4776 27.7736 30.8324 27.6935C31.1991 27.6475 31.5701 27.6192 31.9455 27.6087C32.3259 27.635 32.7071 27.6801 33.089 27.744C33.4687 27.846 33.8453 27.9671 34.2188 28.1074C34.5824 28.2856 34.9391 28.4824 35.2888 28.6979C35.6209 28.9497 35.9422 29.2188 36.2528 29.5054C36.5384 29.8249 36.8097 30.1597 37.0667 30.5099C37.2919 30.8883 37.4996 31.2792 37.69 31.6828C37.8427 32.1083 37.9754 32.5431 38.0881 32.987C38.1586 33.4456 38.2071 33.9094 38.2336 34.3785C38.2148 34.8539 38.173 35.3302 38.108 35.8075C37.9963 36.2821 37.8612 36.7531 37.7027 37.2205C37.4978 37.6759 37.2701 38.1231 37.0196 38.562C36.725 38.9799 36.4091 39.3849 36.072 39.7772C35.6948 40.1395 35.2988 40.4849 34.884 40.8133C34.4348 41.1038 33.9701 41.3736 33.49 41.6226C32.9828 41.827 32.4642 42.0075 31.9341 42.1642C31.3857 42.2708 30.8305 42.3514 30.2686 42.4058C29.698 42.4065 29.1258 42.3797 28.5519 42.3254C27.98 42.2157 27.4117 42.0781 26.8471 41.9127C26.2953 41.6921 25.7527 41.4444 25.2191 41.1696C24.7091 40.8421 24.2135 40.4892 23.7323 40.111C23.2849 39.6847 22.8569 39.2357 22.4482 38.7643C22.0828 38.2513 21.7411 37.7195 21.4231 37.169C21.1564 36.5853 20.917 35.9874 20.705 35.3754C20.5507 34.7403 20.4265 34.0963 20.3324 33.4435C20.3004 32.7788 20.3002 32.1111 20.3318 31.4404C20.4277 30.7699 20.5559 30.1025 20.7165 29.4383C20.9412 28.7868 21.1977 28.1446 21.4857 27.5119C21.8355 26.9043 22.215 26.3121 22.6242 25.7355C23.0902 25.1959 23.5829 24.6774 24.1023 24.1803C24.6711 23.7309 25.2625 23.308 25.8764 22.9113C26.5303 22.572 27.2017 22.2633 27.8904 21.9852C28.6081 21.772 29.3372 21.5927 30.0777 21.4473C30.8345 21.3721 31.5962 21.3329 32.3627 21.3298C33.132 21.3999 33.8992 21.5067 34.6642 21.6504C35.4179 21.8676 36.1624 22.1211 36.8977 22.4108C37.6075 22.7716 38.3012 23.1668 38.9787 23.5964C39.6172 24.0918 40.2329 24.6184 40.826 25.1761C41.3675 25.792 41.8804 26.4345 42.3646 27.1037C42.7864 27.8208 43.1745 28.5589 43.529 29.3182C43.8121 30.1131 44.0576 30.9226 44.2657 31.7465C44.3957 32.5923 44.4856 33.4454 44.5353 34.3056C44.5033 35.1727 44.4298 36.0393 44.3151 36.9053C44.1176 37.7624 43.8791 38.6111 43.5995 39.4513C43.2394 40.2667 42.84 41.0659 42.4014 41.8489C41.8873 42.5917 41.3374 43.3108 40.7515 44.0063C40.0983 44.6474 39.4139 45.2581 38.6984 45.8383C37.9262 46.3515 37.1289 46.8285 36.3064 47.2693C35.4405 47.6327 34.5565 47.9551 33.6544 48.2368C32.7239 48.4331 31.7832 48.5854 30.8324 48.6935C29.8697 48.7115 28.9053 48.6836 27.9393 48.6101C26.9786 48.4445 26.0251 48.2331 25.0786 47.9759C24.1552 47.6284 23.2475 47.2367 22.3556 46.8008C21.5039 46.2795 20.6763 45.7173 19.8728 45.1143C19.1255 44.4341 18.41 43.7179 17.7263 42.9657C17.1132 42.1475 16.5385 41.2996 16.0023 40.4221C15.5488 39.4924 15.1391 38.5407 14.7733 37.5668C14.4996 36.557 14.2737 35.5336 14.0955 34.4965C14.0157 33.4414 13.9859 32.3818 14.0062 31.3179C14.1275 30.2547 14.2994 29.1967 14.5218 28.1439C14.8444 27.1111 15.2163 26.0931 15.6373 25.0899C16.1539 24.1257 16.7166 23.1856 17.3253 22.2695C18.0216 21.4103 18.7589 20.5839 19.5373 19.79C20.3917 19.0694 21.2807 18.389 22.2042 17.7489C23.1893 17.1959 24.2009 16.6894 25.2392 16.2294C26.3219 15.8676 27.4222 15.5571 28.5401 15.2978C29.6833 15.1443 30.8342 15.0451 31.9928 15C33.1564 15.0648 34.3173 15.1848 35.4755 15.3601C36.6177 15.6453 37.7468 15.9848 38.8626 16.3785C39.9417 16.8783 40.9974 17.4294 42.0297 18.0318C43.0054 18.7324 43.9481 19.4794 44.8578 20.2728C45.6926 21.1529 46.486 22.0728 47.2377 23.0324C47.8988 24.0637 48.5111 25.1266 49.0746 26.2209C49.5346 27.3691 49.9403 28.5393 50.2915 29.7315C50.5299 30.9574 50.7102 32.1947 50.8324 33.4435" stroke="black"/>
</svg>
