<svg width="64" height="64" viewBox="0 0 64 64" fill="none" xmlns="http://www.w3.org/2000/svg">
<path d="M32 59.1923C46.9871 59.1923 59.1923 46.9872 59.1923 32C59.1923 17.0128 46.9871 4.80771 32 4.80771C17.0128 4.80771 4.80765 17.0128 4.80765 32C4.80765 46.9872 17.0128 59.1923 32 59.1923ZM32 8.30771C45.0128 8.30771 55.6923 18.9872 55.6923 32C55.6923 45.0128 45.1025 55.6026 32.0897 55.6026C19.0769 55.6026 8.48713 45.0128 8.48713 32C8.39739 18.9872 18.9871 8.30771 32 8.30771Z" fill="#191919"/>
<path d="M25.6282 35.5897C25.6282 35.5897 27.8718 35.5 37.9231 35.5H38.3718" fill="#191919"/>
<path d="M25.6283 37.3846C25.718 37.3846 25.718 37.3846 25.6283 37.3846C25.718 37.3846 28.0514 37.2949 37.9232 37.2949H38.3719C39.3591 37.2949 40.1667 36.4872 40.1667 35.5C40.1667 34.5128 39.3591 33.7051 38.3719 33.7051H37.9232C27.8719 33.7051 25.6283 33.7949 25.5385 33.7949C24.5514 33.8846 23.7437 34.6923 23.8334 35.6795C23.9232 36.6667 24.7309 37.3846 25.6283 37.3846Z" fill="#191919"/>
<path d="M41.4231 29.8462C39.6883 29.8462 38.282 28.4399 38.282 26.7051C38.282 24.9704 39.6883 23.5641 41.4231 23.5641C43.1578 23.5641 44.5641 24.9704 44.5641 26.7051C44.5641 28.4399 43.1578 29.8462 41.4231 29.8462Z" fill="#191919"/>
<path d="M22.8462 29.8462C21.1114 29.8462 19.7051 28.4399 19.7051 26.7051C19.7051 24.9704 21.1114 23.5641 22.8462 23.5641C24.5809 23.5641 25.9872 24.9704 25.9872 26.7051C25.9872 28.4399 24.5809 29.8462 22.8462 29.8462Z" fill="#191919"/>
<path d="M36.3076 24.0128C36.7564 24.0128 37.2051 23.8333 37.5641 23.4744L42.141 18.8974C42.8589 18.1795 42.8589 17.1026 42.141 16.3846C41.423 15.6667 40.3461 15.6667 39.6282 16.3846L35.0512 20.9615C34.3333 21.6795 34.3333 22.7564 35.0512 23.4744C35.4102 23.8333 35.8589 24.0128 36.3076 24.0128Z" fill="#191919"/>
<path d="M27.6923 24.0128C28.141 24.0128 28.5897 23.8333 28.9487 23.4744C29.6667 22.7564 29.6667 21.6795 28.9487 20.9615L24.3718 16.3846C23.6538 15.6667 22.5769 15.6667 21.859 16.3846C21.141 17.1026 21.141 18.1795 21.859 18.8974L26.4359 23.4744C26.7949 23.8333 27.2436 24.0128 27.6923 24.0128Z" fill="#191919"/>
</svg>
