<svg width="64" height="64" viewBox="0 0 64 64" fill="none" xmlns="http://www.w3.org/2000/svg">
<path d="M32 59.1923C17.0128 59.1923 4.80768 46.9872 4.80768 32C4.80768 17.0128 17.0128 4.80768 32 4.80768C46.9872 4.80768 59.1923 17.0128 59.1923 32C59.1923 46.9872 46.9872 59.1923 32 59.1923ZM32 8.30768C18.9872 8.30768 8.30768 18.9872 8.30768 32C8.30768 45.0128 18.8974 55.6026 31.9102 55.6026C44.9231 55.6026 55.5128 45.0128 55.5128 32C55.6026 18.9872 45.0128 8.30768 32 8.30768Z" fill="#191919"/>
<path d="M32.4487 46.9872H32C22.9359 46.9872 18.8077 40.2564 18 36.7564C17.7307 35.5897 18.5384 34.5128 19.7051 34.5128H44.7436C45.9102 34.5128 46.8077 35.5897 46.4487 36.7564C45.5513 40.3461 41.5128 46.9872 32.4487 46.9872ZM22.3974 38.1026C23.6538 40.3461 26.4359 43.3974 32 43.3974H32.4487C38.0128 43.3974 40.7949 40.3461 42.0513 38.1026H22.3974Z" fill="#191919"/>
<path d="M22.5769 29.8461C24.3117 29.8461 25.718 28.4399 25.718 26.7051C25.718 24.9704 24.3117 23.5641 22.5769 23.5641C20.8422 23.5641 19.4359 24.9704 19.4359 26.7051C19.4359 28.4399 20.8422 29.8461 22.5769 29.8461Z" fill="#191919"/>
<path d="M41.1538 29.8461C42.8886 29.8461 44.2949 28.4399 44.2949 26.7051C44.2949 24.9704 42.8886 23.5641 41.1538 23.5641C39.4191 23.5641 38.0128 24.9704 38.0128 26.7051C38.0128 28.4399 39.4191 29.8461 41.1538 29.8461Z" fill="#191919"/>
</svg>
