<svg width="64" height="64" viewBox="0 0 64 64" fill="none" xmlns="http://www.w3.org/2000/svg">
<g clip-path="url(#clip0_562_1209)">
<path d="M41 35C40.448 35 40 35.448 40 36C40 36.552 40.448 37 41 37C41.552 37 42 36.552 42 36C42 35.448 41.552 35 41 35Z" fill="black"/>
<path d="M43.2021 20.0251C42.6544 19.9542 42.1533 20.3421 42.0832 20.8899L40.6692 31.9279C40.5927 32.525 41.0576 33.055 41.6624 33.055C42.1581 33.055 42.5884 32.6866 42.653 32.182L44.067 21.144C44.1371 20.5963 43.7499 20.0953 43.2021 20.0251Z" fill="black"/>
<path d="M45.8841 38.4464C49.041 13.7064 49 14.3197 49 14C49 12.3825 47.1685 11.1046 43.5564 10.2015C40.4574 9.4267 36.3532 9 32 9C27.6468 9 23.5426 9.4267 20.4436 10.2015C16.8315 11.1046 15 12.3825 15 14C15 14.145 14.7979 12.5463 18.1159 38.4464C13.9874 39.3987 6.40002 41.7308 6.40002 46C6.40002 48.6322 9.17422 50.9174 14.4227 52.6086C19.2088 54.1507 25.4512 55 32 55C38.5488 55 44.7912 54.1507 49.5773 52.6086C54.8258 50.9174 57.6 48.6322 57.6 46C57.6 41.7308 50.0125 39.3987 45.8841 38.4464ZM43.806 38.9288C41.0777 40.3406 37.3118 41 32 41C26.6882 41 22.9223 40.3406 20.194 38.9288L17.3535 16.7453C18.226 17.1653 19.3434 17.5374 20.7144 17.8649C23.7786 18.5969 27.7866 19 32 19C36.2134 19 40.2214 18.5969 43.2855 17.8648C44.6565 17.5373 45.774 17.1652 46.6465 16.7452L43.806 38.9288ZM32 43C36.9886 43 40.6307 42.4603 43.506 41.2715L43.0971 44.4651C43.0944 44.4862 43.0924 44.5075 43.091 44.5288C43.0633 44.9654 42.7662 45.3296 42.3527 45.4347C40.0211 46.0247 37.3616 47 32 47C26.6439 47 23.9877 46.0273 21.6483 45.4348C21.2338 45.3295 20.9367 44.9654 20.909 44.5287C20.9076 44.5074 20.9056 44.4861 20.9029 44.465L20.494 41.2714C23.3694 42.4603 27.0114 43 32 43ZM20.9287 12.1418C23.8737 11.4055 27.8055 11 32 11C36.1945 11 40.1263 11.4055 43.0713 12.1418C46.2679 12.941 46.985 13.8078 46.9993 13.9897L46.9954 14.0199C46.9226 14.284 46.0299 15.1529 42.8207 15.9196C39.9044 16.6163 36.0615 17 32 17C27.9385 17 24.0956 16.6163 21.1792 15.9196C17.9806 15.1554 17.0832 14.2897 17.0047 14.0211L17.0009 13.9917C17.0206 13.8012 17.7443 12.9379 20.9287 12.1418ZM48.9639 50.7049C44.4373 52.1635 38.2542 53 32 53C25.7458 53 19.5627 52.1635 15.0361 50.7049C10.8808 49.366 8.40002 47.6072 8.40002 46C8.40002 45.0478 9.41732 43.9649 11.2645 42.9512C13.0418 41.9757 15.4839 41.1148 18.3712 40.4402L18.9154 44.6905C19.0119 45.9807 19.9083 47.0563 21.1567 47.3735C23.4033 47.9422 26.3598 49 32 49C37.5196 49 40.3288 48.0097 42.8443 47.3732C44.0917 47.0562 44.9881 45.9806 45.0846 44.6904L45.6288 40.4401C48.5161 41.1147 50.9582 41.9757 52.7355 42.9511C54.5827 43.9649 55.6 45.0478 55.6 46C55.6 47.6072 53.1192 49.366 48.9639 50.7049Z" fill="black"/>
</g>
<defs>
<clipPath id="clip0_562_1209">
<rect width="51.2" height="51.2" fill="white" transform="translate(6.40002 6.4)"/>
</clipPath>
</defs>
</svg>
