<svg width="64" height="64" viewBox="0 0 64 64" fill="none" xmlns="http://www.w3.org/2000/svg">
<path d="M54.256 40.448C54.4547 39.5892 54.5566 38.7108 54.56 37.8293C54.56 34.4213 53.056 31.2587 50.496 28.656C51.1093 27.008 51.3173 25.4187 50.784 24.176L53.3866 21.9573L56.0533 21.792C56.1934 21.7832 56.3304 21.747 56.4564 21.6853C56.5825 21.6236 56.6952 21.5377 56.788 21.4324C56.8809 21.3272 56.9521 21.2047 56.9976 21.0719C57.0432 20.9392 57.0621 20.7987 57.0533 20.6587C57.0446 20.5186 57.0083 20.3816 56.9466 20.2555C56.8849 20.1295 56.799 20.0168 56.6938 19.9239C56.5885 19.8311 56.466 19.7599 56.3333 19.7143C56.2005 19.6688 56.0601 19.6499 55.92 19.6587L54.32 19.7547L54.6666 18.2187C54.7296 17.9428 54.6804 17.6533 54.5299 17.4138C54.3793 17.1742 54.1398 17.0043 53.864 16.9413C53.5882 16.8784 53.2986 16.9276 53.0591 17.0781C52.8195 17.2286 52.6496 17.4682 52.5866 17.744L52 20.3253L49.3333 22.5973C47.3333 21.4827 44 21.9093 41.0506 22.8693C41.2051 22.0383 41.122 21.1805 40.8106 20.3947L43.344 18.2613L45.9306 18.096C46.0882 18.1199 46.2492 18.1083 46.4017 18.0619C46.5541 18.0154 46.6943 17.9354 46.8118 17.8277C46.9292 17.72 47.0211 17.5873 47.0806 17.4395C47.1401 17.2916 47.1656 17.1323 47.1554 16.9732C47.1453 16.8141 47.0995 16.6594 47.0217 16.5203C46.9438 16.3812 46.8357 16.2614 46.7055 16.1696C46.5752 16.0777 46.426 16.0163 46.2688 15.9897C46.1117 15.9631 45.9505 15.9721 45.7973 16.016L44.2666 16.096L44.608 14.592C44.6103 14.3486 44.5294 14.1117 44.3786 13.9207C44.2277 13.7297 44.0161 13.5959 43.7788 13.5418C43.5415 13.4876 43.2928 13.5162 43.074 13.6228C42.8552 13.7294 42.6795 13.9077 42.576 14.128L42 16.656L39.4133 18.8587C37.7066 17.888 35.1466 18.16 33.1093 18.624C30.3893 19.248 27.5946 20.4747 26.176 21.6693C25.895 21.8929 25.6312 22.1371 25.3866 22.4C16.0426 24.4053 9.21598 30.56 9.21598 37.8293C9.22113 38.711 9.32489 39.5894 9.52531 40.448C8.75019 40.6052 8.06075 41.044 7.59001 41.6795C7.11927 42.3151 6.90058 43.1025 6.97613 43.8898C7.05167 44.6771 7.41611 45.4085 7.99913 45.943C8.58214 46.4774 9.34243 46.777 10.1333 46.784H12.6933C12.6545 47.0864 12.669 47.3932 12.736 47.6907L12.976 48.7573C13.1403 49.4225 13.5183 50.0154 14.0521 50.4451C14.5858 50.8748 15.2457 51.1175 15.9306 51.136H47.8293C48.5156 51.1174 49.1769 50.8742 49.7116 50.4435C50.2463 50.0128 50.6249 49.4186 50.7893 48.752L51.0293 47.6853C51.0963 47.3879 51.1108 47.0811 51.072 46.7787H53.632C54.4242 46.7755 55.1871 46.4786 55.773 45.9455C56.3589 45.4123 56.7263 44.6807 56.8039 43.8923C56.8816 43.1039 56.664 42.3148 56.1933 41.6775C55.7227 41.0403 55.0324 40.6003 54.256 40.4427V40.448ZM46.4 24.064C47.4666 24.064 48.288 24.272 48.6986 24.7627C50.1173 26.4693 46.4373 32.576 43.6533 34.896C42.6228 35.7498 41.2957 36.1602 39.9631 36.0373C38.6304 35.9143 37.4009 35.268 36.544 34.24C35.6908 33.2088 35.2813 31.8813 35.4052 30.5486C35.5292 29.216 36.1765 27.9868 37.2053 27.1307C39.0026 25.6 43.4986 24.064 46.4 24.064ZM33.6 20.704C34.5328 20.4767 35.488 20.3533 36.448 20.336C37.552 20.336 38.3626 20.56 38.7306 21.0027C38.8656 21.233 38.9531 21.4881 38.9879 21.7528C39.0227 22.0175 39.0041 22.2866 38.9333 22.544C36.6166 22.0047 34.2453 21.7345 31.8666 21.7387C31.3155 21.7387 30.7715 21.7547 30.2346 21.7867C31.3224 21.3274 32.4485 20.9651 33.6 20.704V20.704ZM31.904 23.872C33.778 23.8726 35.6477 24.0512 37.488 24.4053C36.9045 24.7108 36.3494 25.0678 35.8293 25.472C34.4378 26.7093 33.5811 28.4386 33.4398 30.2953C33.2985 32.1519 33.8836 33.9909 35.0717 35.4246C36.2599 36.8583 37.9583 37.7747 39.8089 37.9805C41.6596 38.1863 43.5178 37.6656 44.992 36.528V36.528C46.8279 34.8596 48.3679 32.8922 49.5466 30.7093C51.3492 32.648 52.3745 35.1827 52.4267 37.8293C52.4274 38.6467 52.3217 39.4607 52.112 40.2507H11.6693C11.4579 39.4609 11.3503 38.6469 11.3493 37.8293C11.3493 30.1333 20.5653 23.872 31.888 23.872H31.904ZM48.9706 47.2267L48.736 48.2933C48.6799 48.4881 48.5655 48.661 48.4081 48.7887C48.2508 48.9165 48.0581 48.993 47.856 49.008H15.9466C15.7455 48.992 15.554 48.915 15.3977 48.7873C15.2414 48.6596 15.1278 48.4873 15.072 48.2933L14.832 47.2267C14.8164 47.181 14.8112 47.1324 14.8167 47.0844C14.8223 47.0364 14.8384 46.9903 14.864 46.9493C14.8933 46.9225 14.9279 46.902 14.9655 46.8891C15.0031 46.8763 15.043 46.8713 15.0826 46.8747H48.6826C48.7222 46.872 48.7619 46.8772 48.7995 46.89C48.837 46.9028 48.8717 46.923 48.9013 46.9493C48.9265 46.9904 48.9432 47.0361 48.9506 47.0837C48.9579 47.1313 48.9556 47.1799 48.944 47.2267H48.9706ZM53.6586 44.6507H10.1333C9.85042 44.6507 9.57911 44.5383 9.37907 44.3382C9.17903 44.1382 9.06665 43.8669 9.06665 43.584C9.06665 43.3011 9.17903 43.0298 9.37907 42.8297C9.57911 42.6297 9.85042 42.5173 10.1333 42.5173H53.616C53.8989 42.5173 54.1702 42.6297 54.3702 42.8297C54.5703 43.0298 54.6826 43.3011 54.6826 43.584C54.6826 43.8669 54.5703 44.1382 54.3702 44.3382C54.1702 44.5383 53.8989 44.6507 53.616 44.6507H53.6586Z" fill="#1E0505"/>
</svg>
