<svg width="64" height="64" viewBox="0 0 64 64" fill="none" xmlns="http://www.w3.org/2000/svg">
<path d="M39.08 17.7701L36.25 14.9401C36.0627 14.7538 35.8092 14.6493 35.545 14.6493C35.2809 14.6493 35.0274 14.7538 34.84 14.9401L31.58 18.2001C27.4242 16.0558 22.6386 15.468 18.0874 16.5429C13.5362 17.6179 9.5193 20.2846 6.76202 24.0617C4.00475 27.8388 2.68882 32.4773 3.05185 37.1397C3.41488 41.802 5.43294 46.1809 8.74165 49.4856C12.0504 52.7904 16.4316 54.8033 21.0944 55.1608C25.7571 55.5182 30.3941 54.1968 34.1679 51.4351C37.9417 48.6733 40.6037 44.6532 41.6732 40.1007C42.7427 35.5482 42.1493 30.7634 40 26.6101L43.27 23.3501C43.3638 23.2571 43.4382 23.1465 43.4889 23.0247C43.5397 22.9028 43.5658 22.7721 43.5658 22.6401C43.5658 22.5081 43.5397 22.3774 43.4889 22.2555C43.4382 22.1336 43.3638 22.023 43.27 21.9301L40.51 19.2001C41.9006 18.1552 43.6208 17.6459 45.3561 17.7652C47.0914 17.8846 48.7257 18.6247 49.96 19.8501C50.0527 19.9446 50.1631 20.0197 50.285 20.0712C50.4069 20.1227 50.5377 20.1495 50.67 20.1501C50.9338 20.1463 51.1854 20.0385 51.37 19.8501C51.5563 19.6627 51.6608 19.4093 51.6608 19.1451C51.6608 18.8809 51.5563 18.6274 51.37 18.4401C49.7637 16.8342 47.6212 15.8777 45.3532 15.7541C43.0852 15.6304 40.8514 16.3483 39.08 17.7701ZM35 48.0001C32.5404 50.4561 29.4079 52.1279 25.9984 52.8042C22.5889 53.4804 19.0555 53.1308 15.8447 51.7994C12.6338 50.4681 9.88974 48.2148 7.95916 45.3243C6.02858 42.4339 4.99817 39.036 4.99817 35.5601C4.99817 32.0842 6.02858 28.6863 7.95916 25.7958C9.88974 22.9054 12.6338 20.6521 15.8447 19.3207C19.0555 17.9894 22.5889 17.6398 25.9984 18.316C29.4079 18.9923 32.5404 20.664 35 23.1201C38.2927 26.4229 40.1416 30.8964 40.1416 35.5601C40.1416 40.2238 38.2927 44.6973 35 48.0001ZM38.92 24.7801C38.1903 23.6766 37.3529 22.6482 36.42 21.7101C35.4795 20.777 34.4514 19.9365 33.35 19.2001L35.53 17.0201L41.1 22.6001L38.92 24.7801Z" fill="black"/>
<path d="M54.7099 16.1001C54.8415 16.1008 54.972 16.0756 55.0938 16.0258C55.2156 15.9761 55.3265 15.9027 55.4199 15.8101L57.9999 13.2501C58.1637 13.0588 58.2493 12.8127 58.2396 12.561C58.2299 12.3093 58.1256 12.0706 57.9475 11.8925C57.7694 11.7144 57.5306 11.6101 57.279 11.6004C57.0273 11.5906 56.7812 11.6762 56.5899 11.8401L53.9999 14.3901C53.9062 14.483 53.8318 14.5936 53.781 14.7155C53.7302 14.8373 53.7041 14.9681 53.7041 15.1001C53.7041 15.2321 53.7302 15.3628 53.781 15.4846C53.8318 15.6065 53.9062 15.7171 53.9999 15.8101C54.0933 15.9027 54.2042 15.9761 54.326 16.0258C54.4478 16.0756 54.5783 16.1008 54.7099 16.1001Z" fill="black"/>
<path d="M60.0001 18.15H56.3901C56.1249 18.15 55.8706 18.2554 55.683 18.4429C55.4955 18.6305 55.3901 18.8848 55.3901 19.15C55.3901 19.4152 55.4955 19.6696 55.683 19.8571C55.8706 20.0447 56.1249 20.15 56.3901 20.15H60.0001C60.2654 20.15 60.5197 20.0447 60.7072 19.8571C60.8948 19.6696 61.0001 19.4152 61.0001 19.15C61.0001 18.8848 60.8948 18.6305 60.7072 18.4429C60.5197 18.2554 60.2654 18.15 60.0001 18.15Z" fill="black"/>
<path d="M55.4201 22.48C55.3269 22.3868 55.2162 22.3128 55.0944 22.2623C54.9726 22.2119 54.842 22.1859 54.7101 22.1859C54.5783 22.1859 54.4477 22.2119 54.3259 22.2623C54.2041 22.3128 54.0934 22.3868 54.0001 22.48C53.9069 22.5732 53.8329 22.6839 53.7825 22.8058C53.732 22.9276 53.7061 23.0581 53.7061 23.19C53.7061 23.3219 53.732 23.4524 53.7825 23.5743C53.8329 23.6961 53.9069 23.8068 54.0001 23.9L56.5601 26.45C56.7475 26.6363 57.001 26.7408 57.2651 26.7408C57.5293 26.7408 57.7828 26.6363 57.9701 26.45C58.0704 26.3586 58.1511 26.2478 58.2072 26.1243C58.2633 26.0007 58.2937 25.8671 58.2965 25.7314C58.2993 25.5958 58.2745 25.461 58.2235 25.3353C58.1726 25.2095 58.0966 25.0954 58.0001 25L55.4201 22.48Z" fill="black"/>
<path d="M50.6699 23.8701C50.4047 23.8701 50.1504 23.9755 49.9628 24.163C49.7753 24.3505 49.6699 24.6049 49.6699 24.8701V28.4801C49.6699 28.7453 49.7753 28.9997 49.9628 29.1872C50.1504 29.3748 50.4047 29.4801 50.6699 29.4801C50.9351 29.4801 51.1895 29.3748 51.377 29.1872C51.5646 28.9997 51.6699 28.7453 51.6699 28.4801V24.8701C51.6699 24.6049 51.5646 24.3505 51.377 24.163C51.1895 23.9755 50.9351 23.8701 50.6699 23.8701Z" fill="black"/>
<path d="M50.6699 8.81006C50.4047 8.81006 50.1504 8.91541 49.9628 9.10295C49.7753 9.29049 49.6699 9.54484 49.6699 9.81006V13.4301C49.6699 13.6953 49.7753 13.9496 49.9628 14.1372C50.1504 14.3247 50.4047 14.4301 50.6699 14.4301C50.9351 14.4301 51.1895 14.3247 51.377 14.1372C51.5646 13.9496 51.6699 13.6953 51.6699 13.4301V9.81006C51.6699 9.54484 51.5646 9.29049 51.377 9.10295C51.1895 8.91541 50.9351 8.81006 50.6699 8.81006Z" fill="black"/>
</svg>
