<svg width="64" height="64" viewBox="0 0 64 64" fill="none" xmlns="http://www.w3.org/2000/svg">
<g clip-path="url(#clip0_562_1208)">
<path d="M8.97565 51.6075L41.7213 18.8618L45.2142 22.3547L12.4686 55.1004L8.97565 51.6075Z" stroke="black"/>
<path d="M42.1225 15.9965C41.6648 15.9965 41.2933 15.6258 41.2933 15.1673V9.36257C41.2933 8.904 41.6648 8.53333 42.1225 8.53333C42.5803 8.53333 42.9518 8.904 42.9518 9.36257V15.1673C42.9518 15.6258 42.5803 15.9965 42.1225 15.9965Z" fill="#1F2127"/>
<path d="M42.1225 35.069C41.6648 35.069 41.2933 34.6984 41.2933 34.2398V28.4351C41.2933 27.9765 41.6648 27.6059 42.1225 27.6059C42.5803 27.6059 42.9518 27.9765 42.9518 28.4351V34.2398C42.9518 34.6984 42.5803 35.069 42.1225 35.069Z" fill="#1F2127"/>
<path d="M54.5611 22.6304H48.7564C48.2987 22.6304 47.9272 22.2597 47.9272 21.8012C47.9272 21.3426 48.2987 20.9719 48.7564 20.9719H54.5611C55.0189 20.9719 55.3904 21.3426 55.3904 21.8012C55.3904 22.2597 55.0189 22.6304 54.5611 22.6304Z" fill="#1F2127"/>
<path d="M35.4886 22.6304H29.6839C29.2262 22.6304 28.8547 22.2597 28.8547 21.8012C28.8547 21.3426 29.2262 20.9719 29.6839 20.9719H35.4886C35.9463 20.9719 36.3178 21.3426 36.3178 21.8012C36.3178 22.2597 35.9463 22.6304 35.4886 22.6304Z" fill="#1F2127"/>
<path d="M47.098 17.655C46.8857 17.655 46.6734 17.5737 46.5117 17.412C46.1875 17.0878 46.1875 16.5637 46.5117 16.2395L50.6164 12.1347C50.9407 11.8105 51.4647 11.8105 51.789 12.1347C52.1132 12.459 52.1132 12.983 51.789 13.3073L47.6842 17.412C47.5225 17.5737 47.3103 17.655 47.098 17.655Z" fill="#1F2127"/>
<path d="M51.2027 31.7106C50.9904 31.7106 50.7781 31.6293 50.6164 31.4676L46.5117 27.3629C46.1875 27.0387 46.1875 26.5146 46.5117 26.1903C46.8359 25.8661 47.36 25.8661 47.6842 26.1903L51.789 30.2951C52.1132 30.6193 52.1132 31.1434 51.789 31.4676C51.6264 31.6302 51.4142 31.7106 51.2027 31.7106Z" fill="#1F2127"/>
<path d="M37.1471 17.655C36.9348 17.655 36.7225 17.5737 36.5608 17.412L32.4561 13.3073C32.1318 12.983 32.1318 12.459 32.4561 12.1347C32.7803 11.8105 33.3044 11.8105 33.6286 12.1347L37.7334 16.2395C38.0576 16.5637 38.0576 17.0878 37.7334 17.412C37.5716 17.5737 37.3594 17.655 37.1471 17.655Z" fill="#1F2127"/>
<path d="M37.1866 30.4069L45.6161 21.9775L42.0985 18.4599L33.6691 26.8894L37.1866 30.4069Z" fill="#1F2127"/>
</g>
<defs>
<clipPath id="clip0_562_1208">
<rect width="46.9333" height="46.9333" fill="white" transform="translate(8.53333 8.53333)"/>
</clipPath>
</defs>
</svg>
