<svg width="40" height="60" viewBox="0 0 40 60" fill="none" xmlns="http://www.w3.org/2000/svg">
<rect width="40" height="60" rx="1" fill="#8D6852"/>
<path d="M23.5438 30.6606C22.5866 29.7541 21.3184 29.2489 20 29.2489C18.6817 29.2489 17.4135 29.7541 16.4563 30.6606L12.1819 34.7031C9.73192 36.93 11.4994 41.1868 14.8069 41.0206C16.6007 40.9725 18.0575 40.0537 19.9957 40.0887C22.0038 40.0537 23.4957 40.8631 25.2982 41.0206C28.5488 41.095 30.2288 36.8862 27.8138 34.7031L23.5438 30.6606Z" fill="#F8F9FB"/>
<path d="M30.9026 24.7194C29.2313 24.3913 27.9538 26.2506 27.6213 27.8519C26.6238 32.8088 31.4276 33.7538 32.5519 28.9456C33.0113 26.885 32.2851 25.0256 30.9026 24.7194Z" fill="#F8F9FB"/>
<path d="M23.8194 27.3969C25.4819 27.3969 26.8338 25.5069 26.8338 23.1881C26.6675 17.6056 20.9713 17.6056 20.8094 23.1881C20.8094 25.5069 22.1613 27.3969 23.8194 27.3969Z" fill="#F8F9FB"/>
<path d="M12.3787 27.8519C12.0506 26.2506 10.7687 24.3913 9.09751 24.7194C6.00001 25.5025 7.31251 32.1044 10.34 32.1219C12.055 32.065 12.8469 30.0744 12.3787 27.8519Z" fill="#F8F9FB"/>
<path d="M16.1806 27.3969C17.8387 27.3969 19.1906 25.5069 19.1906 23.1881C19.0287 17.6056 13.3325 17.6056 13.1662 23.1881C13.1662 25.5069 14.5181 27.3969 16.1806 27.3969Z" fill="#F8F9FB"/>
</svg>
