<svg width="30" height="30" viewBox="0 0 30 30" fill="none" xmlns="http://www.w3.org/2000/svg">
<path d="M29.8441 12.4123C29.7395 12.2753 29.603 12.1938 29.434 12.168L25.8596 11.6212C25.6643 10.9962 25.3974 10.3583 25.0589 9.70711C25.293 9.38162 25.6444 8.92272 26.1131 8.33008C26.5818 7.73757 26.9137 7.30481 27.1092 7.03123C27.2134 6.88798 27.2652 6.73837 27.2652 6.58198C27.2652 6.39981 27.22 6.25669 27.1285 6.15236C26.66 5.48823 25.5857 4.38156 23.9059 2.83199C23.7503 2.70181 23.5871 2.63675 23.418 2.63675C23.2226 2.63675 23.0664 2.69524 22.9491 2.81236L20.1758 4.90223C19.6418 4.62866 19.0559 4.38778 18.4182 4.17947L17.8713 0.585936C17.8582 0.416689 17.7832 0.276652 17.6466 0.165964C17.5097 0.0551389 17.3505 0 17.1679 0H12.832C12.4544 0 12.22 0.182177 12.1289 0.546805C11.9596 1.19759 11.7707 2.40853 11.5625 4.1794C10.9504 4.37506 10.358 4.62243 9.7851 4.92186L7.08979 2.83199C6.92055 2.70181 6.7513 2.63675 6.58205 2.63675C6.29562 2.63675 5.68047 3.10221 4.7364 4.03321C3.79234 4.96442 3.1514 5.66419 2.81256 6.13273C2.69531 6.30198 2.63688 6.4518 2.63688 6.58198C2.63688 6.73837 2.70187 6.89462 2.83206 7.05066C3.70436 8.10555 4.40112 9.00371 4.922 9.74624C4.59644 10.3451 4.34256 10.9442 4.16045 11.543L0.527514 12.0898C0.38433 12.1159 0.260713 12.2007 0.156455 12.3439C0.051992 12.487 0 12.6369 0 12.7929V17.129C0 17.2985 0.051992 17.4511 0.15625 17.5879C0.260507 17.7246 0.397123 17.8064 0.566439 17.8322L4.14089 18.3597C4.32307 18.9976 4.58994 19.6419 4.94157 20.2928C4.70733 20.6185 4.35577 21.0773 3.88702 21.6698C3.41834 22.2626 3.086 22.6952 2.89089 22.9686C2.78657 23.1124 2.73457 23.2618 2.73457 23.4181C2.73457 23.5871 2.78014 23.7367 2.87119 23.8669C3.379 24.5705 4.45318 25.6642 6.09394 27.1485C6.23726 27.2918 6.40008 27.3632 6.58219 27.3632C6.77764 27.3632 6.94038 27.3049 7.0705 27.1878L9.82464 25.0977C10.3588 25.3711 10.9446 25.6121 11.5826 25.8207L12.1294 29.4142C12.1426 29.5832 12.2174 29.7233 12.354 29.8342C12.4906 29.9452 12.6503 30 12.8325 30H17.1684C17.5467 30 17.7808 29.8179 17.8721 29.4531C18.0412 28.8023 18.2298 27.5915 18.4381 25.8207C19.0501 25.6251 19.6426 25.3776 20.2155 25.0781L22.911 27.1878C23.0932 27.305 23.2627 27.3632 23.4186 27.3632C23.705 27.3632 24.3169 26.9013 25.2543 25.9765C26.1921 25.0522 26.8366 24.349 27.1878 23.8669C27.3049 23.7368 27.3636 23.5871 27.3636 23.4181C27.3636 23.2486 27.2988 23.0855 27.1681 22.9297C26.2311 21.7836 25.5343 20.8855 25.0785 20.2342C25.3389 19.7524 25.5929 19.1601 25.8403 18.4569L29.4535 17.9104C29.6094 17.8842 29.7401 17.7995 29.844 17.6562C29.9482 17.5127 29.9999 17.3629 29.9999 17.2067V12.8711C30.0003 12.7019 29.9486 12.5491 29.8441 12.4123ZM18.5356 18.5351C17.5593 19.5118 16.3808 20.0002 15.0004 20.0002C13.6201 20.0002 12.4418 19.5118 11.4651 18.5351C10.4887 17.5588 10.0003 16.3803 10.0003 15.0001C10.0003 13.6198 10.4884 12.4415 11.4651 11.4648C12.4418 10.4884 13.6203 10 15.0004 10C16.3808 10 17.5593 10.4884 18.5356 11.4648C19.5121 12.4415 20.0004 13.6198 20.0004 15.0001C20.0004 16.3803 19.5121 17.5589 18.5356 18.5351Z" fill="white"/>
</svg>
