<svg width="60" height="60" viewBox="0 0 60 60" fill="none" xmlns="http://www.w3.org/2000/svg">
<circle cx="30" cy="30" r="30" fill="#F2C94C"/>
<path d="M35.5688 31.0381C34.0646 29.6136 32.0717 28.8197 30.0001 28.8197C27.9284 28.8197 25.9355 29.6136 24.4313 31.0381L17.7144 37.3906C13.8644 40.8899 16.6419 47.5793 21.8394 47.3181C24.6582 47.2424 26.9476 45.7987 29.9932 45.8537C33.1488 45.7987 35.4932 47.0706 38.3257 47.3181C43.4338 47.4349 46.0738 40.8212 42.2788 37.3906L35.5688 31.0381Z" fill="#F8F9FB"/>
<path d="M47.1326 21.7019C44.5063 21.1863 42.4988 24.1081 41.9763 26.6244C40.4088 34.4138 47.9576 35.8988 49.7244 28.3431C50.4463 25.105 49.3051 22.1831 47.1326 21.7019Z" fill="#F8F9FB"/>
<path d="M36.0019 25.9094C38.6144 25.9094 40.7388 22.9394 40.7388 19.2956C40.4776 10.5231 31.5263 10.5231 31.2719 19.2956C31.2719 22.9394 33.3963 25.9094 36.0019 25.9094Z" fill="#F8F9FB"/>
<path d="M18.0237 26.6244C17.5081 24.1081 15.4937 21.1863 12.8675 21.7019C8.00002 22.9325 10.0625 33.3069 14.82 33.3344C17.515 33.245 18.7594 30.1169 18.0237 26.6244Z" fill="#F8F9FB"/>
<path d="M23.9981 25.9094C26.6037 25.9094 28.7281 22.9394 28.7281 19.2956C28.4737 10.5231 19.5225 10.5231 19.2612 19.2956C19.2612 22.9394 21.3856 25.9094 23.9981 25.9094Z" fill="#F8F9FB"/>
</svg>
