<svg width="40" height="40" viewBox="0 0 40 40" fill="none" xmlns="http://www.w3.org/2000/svg">
<path d="M33.8744 0.800049C32.452 0.800049 31.1144 1.35365 30.1088 2.36005L3.43436 29.0345L3.28396 29.1841L0.459961 39.5401L10.816 36.7161L37.64 9.89125C38.6464 8.88485 39.2 7.54805 39.2 6.12565C39.2 3.18885 36.8112 0.800049 33.8744 0.800049ZM5.13116 29.6001L24.8 9.93125L30.0688 15.2001L10.4 34.8689L5.13116 29.6001ZM25.9312 8.80005L28 6.73125L33.2688 12L31.2 14.0689L25.9312 8.80005ZM4.40956 31.1409L8.85996 35.5913L2.74076 37.2601L4.40956 31.1409ZM36.5088 8.76005L34.4 10.8688L29.1312 5.60005L31.24 3.49125C31.944 2.78725 32.8792 2.40005 33.8744 2.40005C35.9288 2.40005 37.6 4.07125 37.6 6.12565C37.6 7.12085 37.2128 8.05605 36.5088 8.76005Z" fill="black"/>
</svg>
