<svg width="32" height="26" viewBox="0 0 32 26" fill="none" xmlns="http://www.w3.org/2000/svg">
<path d="M27.128 16.3792C27.2273 16.0357 27.2783 15.6843 27.28 15.3317C27.28 13.9685 26.528 12.7035 25.248 11.6624C25.5546 11.0032 25.6586 10.3675 25.392 9.87039L26.6933 8.98292L28.0266 8.91679C28.0967 8.91329 28.1652 8.89878 28.2282 8.8741C28.2912 8.84943 28.3476 8.81506 28.394 8.77296C28.4404 8.73087 28.476 8.68187 28.4988 8.62876C28.5215 8.57566 28.531 8.51949 28.5266 8.46345C28.5222 8.40742 28.5041 8.35263 28.4733 8.30221C28.4424 8.25178 28.3995 8.20671 28.3468 8.16957C28.2942 8.13242 28.233 8.10393 28.1666 8.08573C28.1002 8.06752 28.03 8.05995 27.96 8.06345L27.16 8.10186L27.3333 7.48745C27.3648 7.37712 27.3402 7.26131 27.2649 7.16549C27.1896 7.06967 27.0699 7.0017 26.932 6.97652C26.794 6.95134 26.6493 6.97103 26.5295 7.03124C26.4097 7.09145 26.3248 7.18726 26.2933 7.29759L26 8.33012L24.6666 9.23892C23.6666 8.79305 22 8.96372 20.5253 9.34772C20.6025 9.01531 20.5609 8.6722 20.4053 8.35786L21.672 7.50452L22.9653 7.43839C23.0441 7.44797 23.1246 7.44331 23.2008 7.42474C23.277 7.40617 23.3471 7.37416 23.4058 7.33108C23.4646 7.288 23.5105 7.23493 23.5403 7.17578C23.57 7.11663 23.5828 7.0529 23.5777 6.98927C23.5726 6.92565 23.5497 6.86375 23.5108 6.80812C23.4719 6.75249 23.4178 6.70455 23.3527 6.66782C23.2876 6.63109 23.213 6.6065 23.1344 6.59587C23.0558 6.58524 22.9752 6.58884 22.8986 6.60639L22.1333 6.63839L22.304 6.03679C22.3051 5.93943 22.2647 5.84468 22.1892 5.76827C22.1138 5.69185 22.008 5.63837 21.8894 5.61669C21.7707 5.59502 21.6464 5.60646 21.537 5.64912C21.4276 5.69177 21.3397 5.76307 21.288 5.85119L21 6.86239L19.7066 7.74345C18.8533 7.35519 17.5733 7.46399 16.5546 7.64959C15.1946 7.89919 13.7973 8.38985 13.088 8.86772C12.9475 8.95715 12.8156 9.05484 12.6933 9.15999C8.02129 9.96212 4.60796 12.424 4.60796 15.3317C4.61054 15.6844 4.66241 16.0357 4.76263 16.3792C4.37506 16.4421 4.03034 16.6176 3.79497 16.8718C3.5596 17.126 3.45026 17.441 3.48803 17.7559C3.52581 18.0708 3.70802 18.3634 3.99953 18.5772C4.29104 18.791 4.67118 18.9108 5.06663 18.9136H6.34663C6.32724 19.0345 6.33446 19.1573 6.36796 19.2763L6.48796 19.7029C6.57013 19.969 6.75914 20.2062 7.026 20.378C7.29286 20.5499 7.62283 20.647 7.96529 20.6544H23.9146C24.2578 20.647 24.5884 20.5497 24.8558 20.3774C25.1231 20.2051 25.3124 19.9674 25.3946 19.7008L25.5146 19.2741C25.5481 19.1552 25.5553 19.0324 25.536 18.9115H26.816C27.2121 18.9102 27.5935 18.7914 27.8865 18.5782C28.1794 18.3649 28.3631 18.0723 28.4019 17.7569C28.4407 17.4416 28.332 17.1259 28.0966 16.871C27.8613 16.6161 27.5161 16.4401 27.128 16.3771V16.3792ZM23.2 9.82559C23.7333 9.82559 24.144 9.90879 24.3493 10.1051C25.0586 10.7877 23.2186 13.2304 21.8266 14.1584C21.3113 14.4999 20.6478 14.6641 19.9815 14.6149C19.3152 14.5657 18.7004 14.3072 18.272 13.896C17.8454 13.4835 17.6406 12.9525 17.7026 12.4194C17.7646 11.8864 18.0882 11.3947 18.6026 11.0523C19.5013 10.44 21.7493 9.82559 23.2 9.82559ZM16.8 8.48159C17.2664 8.39068 17.744 8.34131 18.224 8.33439C18.776 8.33439 19.1813 8.42399 19.3653 8.60105C19.4328 8.69321 19.4765 8.79523 19.4939 8.90112C19.5113 9.00701 19.502 9.11461 19.4666 9.21759C18.3082 9.00189 17.1226 8.89379 15.9333 8.89545C15.6577 8.89545 15.3857 8.90185 15.1173 8.91465C15.6612 8.73096 16.2242 8.58604 16.8 8.48159ZM15.952 9.74879C16.889 9.74904 17.8238 9.82048 18.744 9.96212C18.4522 10.0843 18.1746 10.2271 17.9146 10.3888C17.2189 10.8837 16.7905 11.5754 16.7199 12.3181C16.6492 13.0608 16.9417 13.7964 17.5358 14.3698C18.1299 14.9433 18.9791 15.3099 19.9044 15.3922C20.8298 15.4745 21.7589 15.2662 22.496 14.8112C23.4139 14.1438 24.1839 13.3569 24.7733 12.4837C25.6746 13.2592 26.1872 14.2731 26.2133 15.3317C26.2137 15.6587 26.1608 15.9843 26.056 16.3003H5.83463C5.72891 15.9843 5.67513 15.6588 5.67463 15.3317C5.67463 12.2533 10.2826 9.74879 15.944 9.74879H15.952ZM24.4853 19.0907L24.368 19.5173C24.3399 19.5952 24.2827 19.6644 24.204 19.7155C24.1254 19.7666 24.029 19.7972 23.928 19.8032H7.97329C7.8727 19.7968 7.77694 19.766 7.6988 19.7149C7.62066 19.6638 7.56385 19.5949 7.53596 19.5173L7.41596 19.0907C7.40817 19.0724 7.40556 19.0529 7.40833 19.0337C7.4111 19.0146 7.41917 18.9961 7.43196 18.9797C7.44662 18.969 7.4639 18.9608 7.48272 18.9556C7.50153 18.9505 7.52148 18.9485 7.54129 18.9499H24.3413C24.3611 18.9488 24.3809 18.9509 24.3997 18.956C24.4185 18.9611 24.4358 18.9692 24.4506 18.9797C24.4632 18.9962 24.4716 19.0144 24.4752 19.0335C24.4789 19.0525 24.4778 19.072 24.472 19.0907H24.4853ZM26.8293 18.0603H5.06663C4.92518 18.0603 4.78952 18.0153 4.6895 17.9353C4.58948 17.8553 4.53329 17.7467 4.53329 17.6336C4.53329 17.5204 4.58948 17.4119 4.6895 17.3319C4.78952 17.2519 4.92518 17.2069 5.06663 17.2069H26.808C26.9494 17.2069 27.0851 17.2519 27.1851 17.3319C27.2851 17.4119 27.3413 17.5204 27.3413 17.6336C27.3413 17.7467 27.2851 17.8553 27.1851 17.9353C27.0851 18.0153 26.9494 18.0603 26.808 18.0603H26.8293Z" fill="white"/>
</svg>
