<svg width="30" height="30" viewBox="0 0 30 30" fill="none" xmlns="http://www.w3.org/2000/svg">
<circle cx="15" cy="15" r="14.5" fill="#F8F9FB" stroke="#4DAA80"/>
<path d="M14.7571 18.5708C14.6399 18.5964 14.5336 18.5787 14.4384 18.5177C14.3403 18.4437 14.2798 18.3545 14.257 18.2503C14.2313 18.1331 14.2555 18.0254 14.3296 17.9273L16.2773 15.2282C16.7189 14.6266 17.0487 14.138 17.2668 13.7627C17.4979 13.3845 17.6735 12.9707 17.7934 12.5213C17.9236 12.0561 17.9345 11.5759 17.8261 11.081C17.7064 10.534 17.47 10.0466 17.117 9.61884C16.777 9.18826 16.3072 8.88165 15.7076 8.69901C15.1182 8.50049 14.4197 8.48963 13.6122 8.66645C12.987 8.80334 12.4727 9.0729 12.0694 9.47514C11.6763 9.8615 11.3343 10.3254 11.0434 10.8668C10.9664 10.9519 10.8889 11.003 10.8108 11.0201C10.6935 11.0458 10.5822 11.036 10.4768 10.9909C10.3815 10.9298 10.3225 10.8472 10.2997 10.743C10.2654 10.5867 10.3501 10.3498 10.5535 10.0323C10.8428 9.5458 11.2231 9.10083 11.6944 8.69736C12.1787 8.29103 12.7595 8.01372 13.4368 7.86543C14.2834 7.68005 15.0694 7.68539 15.7948 7.88144C16.5173 8.06447 17.1214 8.42357 17.6071 8.95873C18.103 9.47802 18.4365 10.1284 18.6076 10.9099C18.7531 11.5742 18.7475 12.2032 18.5909 12.7971C18.4343 13.391 18.2339 13.8785 17.9898 14.2596C17.7428 14.6276 17.3767 15.1377 16.8917 15.7898C16.5112 16.2963 15.8823 17.1642 15.0049 18.3937C14.9179 18.4946 14.8352 18.5537 14.7571 18.5708ZM14.8238 22.2415C14.6805 22.2728 14.5439 22.2413 14.4141 22.1469C14.2944 22.0366 14.216 21.8968 14.1789 21.7275C14.1361 21.5321 14.1693 21.3406 14.2783 21.1529C14.3874 20.9653 14.5265 20.8529 14.6959 20.8158C14.8261 20.7873 14.9562 20.8202 15.086 20.9147C15.2159 21.0091 15.2965 21.1279 15.3279 21.2712C15.3764 21.4926 15.3475 21.7037 15.2413 21.9043C15.1453 22.0892 15.0061 22.2015 14.8238 22.2415Z" fill="#4DAA80"/>
</svg>
