<svg width="60" height="60" viewBox="0 0 60 60" fill="none" xmlns="http://www.w3.org/2000/svg">
<path d="M37.5938 31.4155C35.5427 29.4731 32.8251 28.3905 30.0001 28.3905C27.1751 28.3905 24.4575 29.4731 22.4063 31.4155L13.247 40.078C7.99697 44.8499 11.7845 53.9718 18.872 53.6155C22.7157 53.5124 25.8376 51.5437 29.9907 51.6187C34.2938 51.5437 37.4907 53.278 41.3532 53.6155C48.3188 53.7749 51.9188 44.7562 46.7438 40.078L37.5938 31.4155Z" fill="#4DAA80"/>
<path d="M53.3626 18.6844C49.7813 17.9812 47.0438 21.9656 46.3313 25.3969C44.1938 36.0187 54.4876 38.0437 56.897 27.7406C57.8813 23.325 56.3251 19.3406 53.3626 18.6844Z" fill="#4DAA80"/>
<path d="M38.1845 24.4219C41.747 24.4219 44.6439 20.3719 44.6439 15.4031C44.2876 3.44061 32.0814 3.44061 31.7345 15.4031C31.7345 20.3719 34.6314 24.4219 38.1845 24.4219Z" fill="#4DAA80"/>
<path d="M13.6687 25.3969C12.9656 21.9656 10.2187 17.9812 6.63753 18.6844C2.7895e-05 20.3625 2.81253 34.5094 9.30003 34.5469C12.975 34.425 14.6719 30.1594 13.6687 25.3969Z" fill="#4DAA80"/>
<path d="M21.8156 24.4219C25.3688 24.4219 28.2656 20.3719 28.2656 15.4031C27.9188 3.44061 15.7125 3.44061 15.3563 15.4031C15.3563 20.3719 18.2531 24.4219 21.8156 24.4219Z" fill="#4DAA80"/>
</svg>
