<svg width="68" height="68" viewBox="0 0 68 68" fill="none" xmlns="http://www.w3.org/2000/svg">
<path d="M17.8501 36.125C19.3376 37.4 21.2501 38.25 23.3751 38.25C25.5001 38.25 27.4126 37.4 28.9001 36.125" stroke="white" stroke-width="2" stroke-miterlimit="10" stroke-linecap="round" stroke-linejoin="round"/>
<path d="M39.1001 36.125C40.5876 37.4 42.5001 38.25 44.6251 38.25C46.7501 38.25 48.6626 37.4 50.1501 36.125" stroke="white" stroke-width="2" stroke-miterlimit="10" stroke-linecap="round" stroke-linejoin="round"/>
<path d="M34 42.5C30.3875 42.5 27.625 45.2625 27.625 48.875H40.375C40.375 45.2625 37.6125 42.5 34 42.5Z" stroke="white" stroke-width="2" stroke-miterlimit="10" stroke-linecap="round" stroke-linejoin="round"/>
<path d="M44.625 8.5C41.4375 7.225 37.825 6.375 34 6.375C18.7 6.375 6.375 18.7 6.375 34C6.375 49.3 18.7 61.625 34 61.625C49.3 61.625 61.625 49.3 61.625 34C61.625 31.025 61.2 28.2625 60.35 25.5" stroke="white" stroke-width="2" stroke-miterlimit="10" stroke-linecap="round" stroke-linejoin="round"/>
<path d="M42.5 19.125H48.875L42.5 25.5H48.875" stroke="white" stroke-width="2" stroke-miterlimit="10" stroke-linecap="round" stroke-linejoin="round"/>
<path d="M53.125 8.5H61.2L53.55 17H61.625" stroke="white" stroke-width="2" stroke-miterlimit="10" stroke-linecap="round" stroke-linejoin="round"/>
</svg>
