<svg width="30" height="30" viewBox="0 0 30 30" fill="none" xmlns="http://www.w3.org/2000/svg">
<path d="M10.9 1L14.8 10.0153L17.2 4.19898L17.5 10.8878L25 3.61735L20.2 11.4694H25.6L21.1 14.0867L29.497 16.7031C29.4982 16.7034 29.4992 16.7038 29.5 16.7041L29.497 16.7031C29.2615 16.646 20.5 16.9949 20.5 16.9949C20.5 16.9949 24.1 21.9388 25 22.8112L18.1 18.449L21.1 25.7194L16.3 21.3571L14.2 28.3367L12.7 20.4847L5.2 29.5L10 19.3214L5.2 21.0663L8.2 17.2857L1 16.4133L7.9 14.3775L2.2 10.8878L8.5 11.4694L5.2 6.81633L11.5 10.8878L10.9 1Z" fill="white"/>
</svg>
